<?xml version="1.0" encoding="UTF-8" standalone="no"?>
<!DOCTYPE svg PUBLIC "-//W3C//DTD SVG 1.1//EN"
 "http://www.w3.org/Graphics/SVG/1.1/DTD/svg11.dtd">
<!-- Generated by graphviz version 2.38.0 (20140413.2041)
 -->
<!-- Title: models_diagram Pages: 1 -->
<svg width="482pt" height="397pt"
 viewBox="0.00 0.00 481.55 397.00" xmlns="http://www.w3.org/2000/svg" xmlns:xlink="http://www.w3.org/1999/xlink">
<g id="graph0" class="graph" transform="scale(1 1) rotate(0) translate(4 393)">
<title>models_diagram</title>
<polygon fill="none" stroke="none" points="-4,4 -4,-393 477.55,-393 477.55,4 -4,4"/>
<!-- _diagram_info -->
<g id="node1" class="node"><title>_diagram_info</title>
<text text-anchor="start" x="8" y="-360.6" font-family="Times,serif" font-size="13.00">Models diagram</text>
<text text-anchor="start" x="8" y="-347.6" font-family="Times,serif" font-size="13.00">Date: Apr 08 2016 &#45; 21:08</text>
<text text-anchor="start" x="8" y="-334.6" font-family="Times,serif" font-size="13.00">Migration version: 20160408231426</text>
<text text-anchor="start" x="8" y="-321.6" font-family="Times,serif" font-size="13.00">Generated by RailRoady 1.4.2</text>
<text text-anchor="start" x="8" y="-308.6" font-family="Times,serif" font-size="13.00">http://railroady.prestonlee.com</text>
</g>
<!-- Employee -->
<g id="node2" class="node"><title>Employee</title>
<path fill="none" stroke="black" d="M237.825,-288.5C237.825,-288.5 461.55,-288.5 461.55,-288.5 467.55,-288.5 473.55,-294.5 473.55,-300.5 473.55,-300.5 473.55,-376.5 473.55,-376.5 473.55,-382.5 467.55,-388.5 461.55,-388.5 461.55,-388.5 237.825,-388.5 237.825,-388.5 231.825,-388.5 225.825,-382.5 225.825,-376.5 225.825,-376.5 225.825,-300.5 225.825,-300.5 225.825,-294.5 231.825,-288.5 237.825,-288.5"/>
<text text-anchor="middle" x="349.688" y="-373.3" font-family="Times,serif" font-size="14.00">Employee</text>
<polyline fill="none" stroke="black" points="225.825,-366.5 473.55,-366.5 "/>
<text text-anchor="start" x="233.825" y="-351.3" font-family="Times,serif" font-size="14.00">id :integer</text>
<text text-anchor="start" x="233.825" y="-337.3" font-family="Times,serif" font-size="14.00">name :character varying</text>
<text text-anchor="start" x="233.825" y="-323.3" font-family="Times,serif" font-size="14.00">email :character varying</text>
<text text-anchor="start" x="233.825" y="-309.3" font-family="Times,serif" font-size="14.00">created_at :timestamp without time zone</text>
<text text-anchor="start" x="233.825" y="-295.3" font-family="Times,serif" font-size="14.00">updated_at :timestamp without time zone</text>
</g>
<!-- Operation -->
<g id="node4" class="node"><title>Operation</title>
<path fill="none" stroke="black" d="M237.825,-151.5C237.825,-151.5 461.55,-151.5 461.55,-151.5 467.55,-151.5 473.55,-157.5 473.55,-163.5 473.55,-163.5 473.55,-239.5 473.55,-239.5 473.55,-245.5 467.55,-251.5 461.55,-251.5 461.55,-251.5 237.825,-251.5 237.825,-251.5 231.825,-251.5 225.825,-245.5 225.825,-239.5 225.825,-239.5 225.825,-163.5 225.825,-163.5 225.825,-157.5 231.825,-151.5 237.825,-151.5"/>
<text text-anchor="middle" x="349.688" y="-236.3" font-family="Times,serif" font-size="14.00">Operation</text>
<polyline fill="none" stroke="black" points="225.825,-229.5 473.55,-229.5 "/>
<text text-anchor="start" x="233.825" y="-214.3" font-family="Times,serif" font-size="14.00">id :integer</text>
<text text-anchor="start" x="233.825" y="-200.3" font-family="Times,serif" font-size="14.00">employee_id :integer</text>
<text text-anchor="start" x="233.825" y="-186.3" font-family="Times,serif" font-size="14.00">name :character varying</text>
<text text-anchor="start" x="233.825" y="-172.3" font-family="Times,serif" font-size="14.00">created_at :timestamp without time zone</text>
<text text-anchor="start" x="233.825" y="-158.3" font-family="Times,serif" font-size="14.00">updated_at :timestamp without time zone</text>
</g>
<!-- Employee&#45;&gt;Operation -->
<g id="edge1" class="edge"><title>Employee&#45;&gt;Operation</title>
<path fill="none" stroke="#309753" d="M349.688,-280.176C349.688,-274.13 349.688,-267.973 349.688,-261.904"/>
<ellipse fill="none" stroke="#309753" cx="349.688" cy="-284.38" rx="4" ry="4"/>
<polygon fill="#309753" stroke="#309753" points="349.688,-261.81 354.188,-251.81 349.688,-256.81 349.688,-251.81 349.688,-251.81 349.688,-251.81 349.688,-256.81 345.188,-251.81 349.688,-261.81 349.688,-261.81"/>
</g>
<!-- Inventary -->
<g id="node3" class="node"><title>Inventary</title>
<path fill="none" stroke="black" d="M237.825,-0.5C237.825,-0.5 461.55,-0.5 461.55,-0.5 467.55,-0.5 473.55,-6.5 473.55,-12.5 473.55,-12.5 473.55,-102.5 473.55,-102.5 473.55,-108.5 467.55,-114.5 461.55,-114.5 461.55,-114.5 237.825,-114.5 237.825,-114.5 231.825,-114.5 225.825,-108.5 225.825,-102.5 225.825,-102.5 225.825,-12.5 225.825,-12.5 225.825,-6.5 231.825,-0.5 237.825,-0.5"/>
<text text-anchor="middle" x="349.688" y="-99.3" font-family="Times,serif" font-size="14.00">Inventary</text>
<polyline fill="none" stroke="black" points="225.825,-92.5 473.55,-92.5 "/>
<text text-anchor="start" x="233.825" y="-77.3" font-family="Times,serif" font-size="14.00">id :integer</text>
<text text-anchor="start" x="233.825" y="-63.3" font-family="Times,serif" font-size="14.00">sku :character varying</text>
<text text-anchor="start" x="233.825" y="-49.3" font-family="Times,serif" font-size="14.00">description :text</text>
<text text-anchor="start" x="233.825" y="-35.3" font-family="Times,serif" font-size="14.00">wheel_size :integer</text>
<text text-anchor="start" x="233.825" y="-21.3" font-family="Times,serif" font-size="14.00">created_at :timestamp without time zone</text>
<text text-anchor="start" x="233.825" y="-7.3" font-family="Times,serif" font-size="14.00">updated_at :timestamp without time zone</text>
</g>
<!-- Operation&#45;&gt;Inventary -->
<g id="edge2" class="edge"><title>Operation&#45;&gt;Inventary</title>
<path fill="none" stroke="#b010d6" d="M349.688,-143.168C349.688,-136.633 349.688,-129.939 349.688,-123.316"/>
<ellipse fill="none" stroke="#b010d6" cx="349.688" cy="-147.234" rx="4" ry="4"/>
<ellipse fill="#b010d6" stroke="#b010d6" cx="349.688" cy="-118.984" rx="4" ry="4"/>
</g>
</g>
</svg>
