<?xml version="1.0" encoding="UTF-8" standalone="no"?>
<!DOCTYPE svg PUBLIC "-//W3C//DTD SVG 1.1//EN"
 "http://www.w3.org/Graphics/SVG/1.1/DTD/svg11.dtd">
<!-- Generated by graphviz version 2.38.0 (20140413.2041)
 -->
<!-- Title: models_diagram Pages: 1 -->
<svg width="326pt" height="225pt"
 viewBox="0.00 0.00 325.65 225.00" xmlns="http://www.w3.org/2000/svg" xmlns:xlink="http://www.w3.org/1999/xlink">
<g id="graph0" class="graph" transform="scale(1 1) rotate(0) translate(4 221)">
<title>models_diagram</title>
<polygon fill="none" stroke="none" points="-4,4 -4,-221 321.648,-221 321.648,4 -4,4"/>
<!-- _diagram_info -->
<g id="node1" class="node"><title>_diagram_info</title>
<text text-anchor="start" x="8" y="-202.6" font-family="Times,serif" font-size="13.00">Models diagram</text>
<text text-anchor="start" x="8" y="-189.6" font-family="Times,serif" font-size="13.00">Date: Apr 08 2016 &#45; 21:08</text>
<text text-anchor="start" x="8" y="-176.6" font-family="Times,serif" font-size="13.00">Migration version: 20160408231426</text>
<text text-anchor="start" x="8" y="-163.6" font-family="Times,serif" font-size="13.00">Generated by RailRoady 1.4.2</text>
<text text-anchor="start" x="8" y="-150.6" font-family="Times,serif" font-size="13.00">http://railroady.prestonlee.com</text>
</g>
<!-- Employee -->
<g id="node2" class="node"><title>Employee</title>
<ellipse fill="none" stroke="black" cx="271.688" cy="-180.5" rx="45.92" ry="18"/>
<text text-anchor="middle" x="271.688" y="-176.3" font-family="Times,serif" font-size="14.00">Employee</text>
</g>
<!-- Operation -->
<g id="node4" class="node"><title>Operation</title>
<ellipse fill="none" stroke="black" cx="271.688" cy="-90" rx="45.4355" ry="18"/>
<text text-anchor="middle" x="271.688" y="-85.8" font-family="Times,serif" font-size="14.00">Operation</text>
</g>
<!-- Employee&#45;&gt;Operation -->
<g id="edge1" class="edge"><title>Employee&#45;&gt;Operation</title>
<path fill="none" stroke="#1c5d97" d="M271.688,-154.189C271.688,-142.971 271.688,-129.752 271.688,-118.311"/>
<ellipse fill="none" stroke="#1c5d97" cx="271.688" cy="-158.436" rx="4" ry="4"/>
<polygon fill="#1c5d97" stroke="#1c5d97" points="271.688,-118.011 276.188,-108.011 271.688,-113.011 271.688,-108.011 271.688,-108.011 271.688,-108.011 271.688,-113.011 267.188,-108.011 271.688,-118.011 271.688,-118.011"/>
</g>
<!-- Inventary -->
<g id="node3" class="node"><title>Inventary</title>
<ellipse fill="none" stroke="black" cx="271.688" cy="-18" rx="43.9819" ry="18"/>
<text text-anchor="middle" x="271.688" y="-13.8" font-family="Times,serif" font-size="14.00">Inventary</text>
</g>
<!-- Operation&#45;&gt;Inventary -->
<g id="edge2" class="edge"><title>Operation&#45;&gt;Inventary</title>
<path fill="none" stroke="#16eef4" d="M271.688,-63.6398C271.688,-57.348 271.688,-50.6053 271.688,-44.3156"/>
<ellipse fill="none" stroke="#16eef4" cx="271.688" cy="-67.6966" rx="4" ry="4"/>
<ellipse fill="#16eef4" stroke="#16eef4" cx="271.688" cy="-40.1043" rx="4" ry="4"/>
</g>
</g>
</svg>
